<svg xmlns="http://www.w3.org/2000/svg" viewBox="0 0 200 200" width="200" height="200">
  <defs>
    <filter id="g-glow" x="-50%" y="-50%" width="200%" height="200%">
      <feGaussianBlur stdDeviation="2.5" result="b"></feGaussianBlur>
      <feMerge><feMergeNode in="b"></feMergeNode><feMergeNode in="SourceGraphic"></feMergeNode></feMerge>
    </filter>
    <radialGradient id="g-core" cx="50%" cy="50%" r="50%">
      <stop offset="0%" stop-color="#FFFFFF" stop-opacity="1"></stop>
      <stop offset="40%" stop-color="#007FFF" stop-opacity="0.85"></stop>
      <stop offset="100%" stop-color="#007FFF" stop-opacity="0"></stop>
    </radialGradient>
  </defs>

  
  <g fill="none" stroke="#007FFF" stroke-width="1.2" filter="url(#g-glow)">
    <circle cx="100" cy="100" r="20" opacity="0">
      
      
    </circle>
    <circle cx="100" cy="100" r="20" opacity="0">
      
      
    </circle>
    <circle cx="100" cy="100" r="20" opacity="0">
      
      
    </circle>
  </g>

  
  <circle cx="100" cy="100" r="18" fill="url(#g-core)" filter="url(#g-glow)">
    
  </circle>

  
  <g filter="url(#g-glow)">
    
    <g>
      
      <circle cx="140" cy="100" r="3" fill="#FFFFFF"></circle>
      <circle cx="100" cy="60" r="3" fill="#D72483"></circle>
      <circle cx="60" cy="100" r="3" fill="#FFFFFF"></circle>
      <circle cx="100" cy="140" r="3" fill="#D72483"></circle>
    </g>
    
    <g>
      
      <circle cx="162" cy="100" r="2.2" fill="#007FFF"></circle>
      <circle cx="100" cy="38" r="2.2" fill="#FFFFFF"></circle>
      <circle cx="38" cy="100" r="2.2" fill="#007FFF"></circle>
      <circle cx="100" cy="162" r="2.2" fill="#FFFFFF"></circle>
    </g>
    
    <g>
      
      <circle cx="178" cy="100" r="1.8" fill="#D72483"></circle>
      <circle cx="22" cy="100" r="1.8" fill="#D72483"></circle>
    </g>
  </g>

  
  <g fill="#FFFFFF" filter="url(#g-glow)">
    <circle cx="100" cy="100" r="1.8" opacity="0">
      
      
      
    </circle>
    <circle cx="100" cy="100" r="1.8" opacity="0">
      
      
      
    </circle>
    <circle cx="100" cy="100" r="1.8" opacity="0">
      
      
      
    </circle>
    <circle cx="100" cy="100" r="1.8" opacity="0">
      
      
      
    </circle>
  </g>
</svg>